# xmcd CD database file
#
# Track frame offsets:
#	150
#	19982
#	46346
#	66085
#
# Disc length: 1228 seconds
#
# Revision: 6
# Processed by: cddbd v1.5.1PL0 Copyright (c) Steve Scherf et al.
# Submitted via: CDex 1.51
#
DISCID=2f04ca04
DTITLE=ぱじゃまソフト - 贖罪のラプソディー
DYEAR=2004
DGENRE=Game
TTITLE0=贖罪のラプソディー
TTITLE1=エンジェル・レェス
TTITLE2=贖罪のラプソディー (off vocal)
TTITLE3=エンジェル・レェス (off vocal)
EXTD=YEAR: 2004
EXTT0=
EXTT1=
EXTT2=
EXTT3=
PLAYORDER=
